<?xml version="1.0" standalone="no"?>
<!DOCTYPE svg PUBLIC "-//W3C//DTD SVG 20010904//EN"
 "http://www.w3.org/TR/2001/REC-SVG-20010904/DTD/svg10.dtd">
<svg version="1.0" xmlns="http://www.w3.org/2000/svg"
 width="700.000000pt" height="700.000000pt" viewBox="0 0 700.000000 700.000000"
 preserveAspectRatio="xMidYMid meet">
<metadata>
Created by potrace 1.14, written by Peter Selinger 2001-2017
</metadata>
<g transform="translate(0.000000,700.000000) scale(0.100000,-0.100000)"
fill="#000000" stroke="none">
<path d="M5504 6978 c3 -13 16 -66 29 -118 27 -104 28 -109 57 -290 24 -154
34 -295 34 -465 0 -125 -10 -318 -18 -360 -2 -11 -7 -42 -10 -70 -17 -130 -60
-324 -107 -479 -125 -410 -355 -822 -631 -1129 l-72 -79 -24 61 c-28 68 -57
86 -125 82 -35 -2 -39 0 -28 13 11 13 9 17 -10 25 -22 8 -60 25 -184 81 -76
34 -234 90 -254 90 -11 0 -31 -15 -45 -32 -20 -28 -118 -264 -226 -548 -15
-41 -48 -127 -72 -190 -25 -63 -60 -157 -79 -208 l-34 -92 -55 -21 c-161 -61
-395 -115 -620 -143 -110 -14 -545 -16 -610 -3 -14 3 -50 8 -80 12 -165 20
-484 102 -615 159 -16 8 -55 24 -85 36 -215 86 -536 286 -728 453 -96 83 -307
303 -382 397 -98 123 -220 306 -285 425 -26 47 -48 85 -51 85 -13 0 98 -275
171 -422 258 -519 649 -943 1140 -1235 179 -106 401 -205 595 -264 52 -16 100
-31 106 -33 8 -3 -3 -48 -33 -133 -94 -266 -332 -976 -391 -1168 -35 -110 -68
-211 -75 -224 -7 -15 -26 -28 -47 -34 -74 -18 -696 -243 -738 -266 -11 -6 64
-28 153 -45 11 -2 71 -16 133 -30 l113 -25 77 31 c42 16 88 34 102 38 14 4 48
17 76 28 l51 21 -27 -97 c-88 -308 -88 -308 -67 -310 6 0 118 -27 247 -60 129
-33 238 -57 242 -54 4 4 11 25 17 47 18 76 62 230 128 451 l65 221 160 42
c128 33 306 77 478 116 8 2 58 13 110 25 52 12 102 23 110 25 62 15 470 107
490 111 14 3 54 12 90 20 36 9 74 17 85 20 11 2 70 15 130 28 194 44 475 106
508 112 18 3 52 10 77 15 46 11 226 43 293 53 20 3 54 9 75 12 20 3 48 7 62 9
14 2 52 7 85 10 33 4 64 8 69 9 9 1 24 -43 107 -304 55 -177 85 -266 179 -540
42 -124 65 -176 78 -181 16 -6 111 -22 202 -35 19 -2 51 -7 70 -10 19 -4 46
-8 60 -10 14 -1 53 -8 88 -15 35 -6 65 -9 68 -6 3 3 -48 167 -114 364 -67 197
-150 451 -185 566 -62 199 -64 207 -43 208 103 6 155 8 316 13 102 3 287 7
413 8 202 2 241 8 167 23 -9 2 -87 22 -175 45 l-160 43 -200 -2 c-110 -1 -249
-4 -308 -5 -102 -2 -109 -1 -117 18 -5 12 -27 82 -50 156 -77 254 -99 325
-190 615 -101 319 -176 548 -240 728 l-41 118 71 82 c325 373 552 805 670
1277 34 136 57 254 66 342 3 34 8 66 10 69 7 12 18 238 18 369 0 116 -4 183
-19 355 -2 29 -13 97 -21 140 -3 11 -6 34 -8 50 -25 176 -119 487 -213 703
-45 102 -58 122 -49 80z m-1083 -3311 c-10 -9 -11 -8 -5 6 3 10 9 15 12 12 3
-3 0 -11 -7 -18z m327 -932 c34 -104 81 -257 107 -340 25 -82 57 -184 70 -225
55 -172 96 -312 93 -315 -3 -3 -34 -6 -203 -20 -66 -6 -201 -21 -272 -31 -91
-12 -235 -34 -268 -40 -11 -2 -36 -6 -55 -9 -77 -14 -371 -75 -467 -98 -116
-28 -116 -28 -82 50 32 76 155 396 303 793 75 201 140 371 144 378 4 8 48 35
97 61 125 65 175 95 290 173 l100 68 42 -128 c22 -70 68 -212 101 -317z
m-1355 -298 c-49 -130 -90 -237 -94 -237 -9 0 -240 410 -235 418 3 5 31 10 63
11 32 1 72 4 88 6 17 3 66 9 110 15 44 6 96 14 115 19 19 4 36 7 38 6 1 -1
-37 -108 -85 -238z m-670 -74 c21 -38 49 -88 63 -113 110 -190 283 -502 289
-519 4 -14 22 -25 58 -36 79 -22 343 -85 364 -86 18 -1 -57 -24 -112 -35 -29
-5 -246 -53 -585 -130 -85 -20 -164 -38 -175 -40 -11 -3 -30 -7 -42 -10 -42
-8 -238 -55 -255 -60 -11 -3 -18 0 -18 8 0 16 172 537 281 848 39 113 73 213
76 223 9 28 17 21 56 -50z"/>
</g>
</svg>
