<svg width="48" height="44" viewBox="0 0 48 44" fill="none" xmlns="http://www.w3.org/2000/svg">
<path fill-rule="evenodd" clip-rule="evenodd" d="M24.0003 0.0234375C18.3027 0.0262132 12.792 1.92101 8.45349 5.36902C4.11497 8.81703 1.23156 13.5934 0.318845 18.8441C-0.593873 24.0948 0.523609 29.4774 3.4715 34.0294C6.41938 38.5814 11.0054 42.0061 16.4096 43.691C17.6019 43.8988 18.0509 43.2049 18.0509 42.615C18.0509 42.025 18.0271 40.3145 18.0191 38.4445C11.3425 39.7988 9.93173 35.799 9.93173 35.799C8.8428 33.2017 7.26903 32.519 7.26903 32.519C5.09119 31.1313 7.43198 31.1573 7.43198 31.1573C9.8443 31.3168 11.1121 33.4689 11.1121 33.4689C13.2502 36.8936 16.7275 35.9029 18.0947 35.3241C18.3093 33.8733 18.9332 32.8863 19.6207 32.3261C14.2874 31.7621 8.68383 29.8401 8.68383 21.2543C8.65078 19.0276 9.5358 16.8742 11.1558 15.2397C10.9094 14.6758 10.0867 12.3976 11.3902 9.30312C11.3902 9.30312 13.4052 8.70204 17.9914 11.5999C21.9251 10.5955 26.0755 10.5955 30.0092 11.5999C34.5914 8.70204 36.6024 9.30312 36.6024 9.30312C37.9099 12.3902 37.0872 14.6683 36.8408 15.2397C38.4659 16.8745 39.3528 19.0316 39.3167 21.2617C39.3167 29.8661 33.7012 31.7621 28.3599 32.3149C29.2184 33.0125 29.9854 34.3742 29.9854 36.4669C29.9854 39.4649 29.9576 41.8766 29.9576 42.615C29.9576 43.2123 30.3907 43.9099 31.6068 43.691C37.0117 42.0059 41.5982 38.5806 44.546 34.0278C47.4938 29.475 48.6107 24.0916 47.697 18.8404C46.7832 13.5893 43.8984 8.81284 39.5584 5.36542C35.2185 1.918 29.7065 0.0244538 24.0082 0.0234375H24.0003Z" fill="white"/>
</svg>
