<svg width="50" height="50" viewBox="0 0 50 50" fill="none" xmlns="http://www.w3.org/2000/svg">
<path d="M2.19302 41.6184C2.19985 41.6184 2.20538 41.6127 2.20538 41.6056C2.20538 41.5985 2.19985 41.5928 2.19302 41.5928C2.1862 41.5928 2.18066 41.5985 2.18066 41.6056C2.18066 41.6127 2.1862 41.6184 2.19302 41.6184Z" fill="#373C38" stroke="black" stroke-width="0.636399"/>
<path d="M14.497 50.0001C15.8344 45.2379 17.4449 40.5919 19.1133 35.9913C19.615 34.6799 20.0848 33.3472 20.6164 32.0534C20.6926 31.8681 20.7736 31.686 20.8576 31.5061C20.9048 31.405 20.9392 31.2866 21.0097 31.2111C21.0335 31.1857 21.0639 31.2411 21.0911 31.256C19.8361 31.0557 18.5994 30.5123 17.3261 30.6551C17.006 30.691 17.7084 31.2934 17.8982 31.6141C18.9662 33.419 20.0504 35.2072 21.1235 37.007C21.5806 37.7756 22.0356 38.5463 22.4897 39.3179C22.5732 39.4598 22.6567 39.6019 22.7401 39.744C22.7985 39.8433 22.8197 40.014 22.915 40.0419C24.2848 40.443 25.685 40.6885 27.07 41.0119C29.0049 36.4167 30.7766 31.7183 32.6259 27.0692C33.2955 25.5131 33.8569 23.8771 34.5614 22.3432C34.6626 22.1228 34.7214 21.8255 34.8968 21.7068C35.0051 21.6334 35.3346 21.9052 35.2152 21.9004C34.0597 21.8542 32.9138 21.6877 31.7631 21.5813C31.954 21.9387 32.1603 22.2826 32.3359 22.6536C32.816 23.6678 33.5349 25.4907 33.9103 26.4887C34.8532 28.9953 35.6967 31.5669 36.5492 34.1307C37.5978 37.382 38.6347 40.6403 39.7239 43.8672C40.1602 45.0584 40.5818 46.2591 41.0081 47.4568C41.0356 47.5334 41.063 47.6101 41.0904 47.6868L45.1401 48.2884C45.1127 48.2121 45.0852 48.1357 45.0578 48.0593C44.6308 46.8651 44.2179 45.662 43.7722 44.48C42.6809 41.2554 41.6404 38.0003 40.5971 34.7468C39.1607 30.4148 37.7713 26.0086 35.8307 22.029C34.3451 21.4477 32.8905 20.7381 31.3737 20.2849C31.0152 20.1778 30.6831 21.0511 30.5921 21.2524C29.8946 22.7964 29.3182 24.4253 28.6542 25.9907C27.5679 28.7233 26.4975 31.4653 25.4208 34.2038C25.1498 34.893 24.0941 37.6006 23.7292 38.4254C23.5718 38.781 23.3838 39.1138 23.2111 39.4581C24.4667 39.8171 25.7065 40.2597 26.9777 40.5353C27.0744 40.5563 26.8612 40.3363 26.8029 40.2369C26.2661 39.3214 25.7274 38.4079 25.1867 37.4965C24.3861 36.1514 23.5731 34.8195 22.7685 33.4786C22.4963 33.0251 22.2273 32.5684 21.9607 32.1092C21.7688 31.7787 21.6959 31.2517 21.393 31.1095C20.0488 30.4783 18.5901 30.2821 17.1886 29.8684C16.9635 30.2079 16.8051 30.5821 16.6442 30.9776C16.1146 32.2793 15.6377 33.6138 15.1376 34.9327C13.4606 39.5656 11.836 44.2426 10.5023 49.0422L14.497 50.0002L14.497 50.0001Z" fill="white"/>
<path d="M41.7227 0C42.4739 2.27737 42.8571 4.65908 42.8577 7.05609C42.8578 19.5578 32.5246 29.6925 19.9651 29.6924C11.5199 29.6858 3.92565 25.0213 0 17.5785C3.05114 26.8881 11.7703 33.1892 21.6081 33.1941C27.2206 33.1941 32.3582 31.1702 36.3246 27.8156C41.2339 23.6635 44.3488 17.4727 44.3487 10.5578C44.3485 6.87842 43.447 3.25452 41.7227 0V0Z" fill="#E0C400"/>
<path d="M8.96865 46.913C10.3758 46.3688 11.808 45.9014 13.2318 45.4077C15.7255 44.5764 18.2892 43.9996 20.8468 43.427C24.6105 42.5961 28.3826 41.8061 32.1515 41.0003C32.8439 40.8649 33.5347 40.7201 34.2287 40.5941C35.5217 40.3593 36.7893 40.1617 38.0943 40.0176C40.0837 39.7979 42.0801 39.7168 44.0779 39.6353C46.0513 39.5678 48.0257 39.547 50 39.5373L46.7362 38.7246C44.7609 38.7376 42.7856 38.7614 40.8114 38.8346C39.2579 38.9031 38.3469 38.9292 36.791 39.0552C34.1286 39.2709 31.4875 39.6928 28.8729 40.2547C25.1036 41.0607 21.3305 41.8487 17.5674 42.685C15.006 43.2658 12.4381 43.8495 9.94498 44.7023C8.52 45.1926 7.0935 45.6772 5.68176 46.2079L8.96865 46.913V46.913Z" fill="white"/>
</svg>
