<svg width="75" height="75" viewBox="0 0 75 75" fill="none" xmlns="http://www.w3.org/2000/svg">
<g clip-path="url(#clip0_23_18)">
<g clip-path="url(#clip1_23_18)">
<path d="M4.92338 58.9575C4.93265 58.9575 4.94015 58.9493 4.94015 58.9392C4.94015 58.9291 4.93265 58.9209 4.92338 58.9209C4.91412 58.9209 4.90662 58.9291 4.90662 58.9392C4.90662 58.9493 4.91412 58.9575 4.92338 58.9575Z" fill="#373C38" stroke="black" stroke-width="0.636399"/>
<path d="M21.6736 70.9344C23.4942 64.1296 25.6867 57.4908 27.958 50.917C28.641 49.043 29.2807 47.1388 30.0044 45.29C30.108 45.0253 30.2184 44.765 30.3327 44.508C30.3969 44.3635 30.4438 44.1943 30.5398 44.0864C30.5721 44.0501 30.6136 44.1292 30.6505 44.1506C28.942 43.8644 27.2584 43.0879 25.525 43.2919C25.0893 43.3432 26.0455 44.2041 26.3038 44.6622C27.7578 47.2414 29.2337 49.7965 30.6947 52.3683C31.3169 53.4665 31.9363 54.5677 32.5545 55.6703C32.6683 55.8732 32.7819 56.0762 32.8955 56.2792C32.9749 56.421 33.0038 56.665 33.1335 56.7049C34.9984 57.2781 36.9045 57.6289 38.79 58.0909C41.4242 51.5248 43.8361 44.8111 46.3536 38.168C47.2652 35.9445 48.0294 33.6067 48.9885 31.415C49.1264 31.1001 49.2064 30.6752 49.4452 30.5055C49.5925 30.4008 50.0411 30.7891 49.8786 30.7823C48.3056 30.7162 46.7455 30.4782 45.179 30.3262C45.4389 30.837 45.7198 31.3284 45.9588 31.8584C46.6125 33.3077 47.5912 35.9125 48.1022 37.3385C49.3858 40.9202 50.5341 44.5949 51.6947 48.2582C53.1222 52.9041 54.5338 57.56 56.0167 62.1709C56.6106 63.8731 57.1845 65.5887 57.7649 67.3001C57.8023 67.4096 57.8396 67.5192 57.8769 67.6288L63.3901 68.4885C63.3527 68.3794 63.3153 68.2702 63.2779 68.1611C62.6967 66.4547 62.1346 64.7355 61.5279 63.0465C60.0421 58.4389 58.6256 53.7876 57.2053 49.1386C55.2499 42.9486 53.3584 36.6524 50.7166 30.966C48.694 30.1353 46.7138 29.1214 44.649 28.4739C44.1609 28.3208 43.7088 29.5686 43.5849 29.8563C42.6354 32.0626 41.8506 34.3901 40.9467 36.6269C39.4679 40.5316 38.0106 44.4497 36.5448 48.3628C36.1759 49.3476 34.7387 53.2164 34.2419 54.395C34.0277 54.9032 33.7718 55.3788 33.5367 55.8706C35.2459 56.3837 36.9338 57.016 38.6644 57.4099C38.796 57.4399 38.5058 57.1255 38.4264 56.9835C37.6956 55.6754 36.9623 54.37 36.2261 53.0677C35.1362 51.1457 34.0295 49.2425 32.9341 47.3266C32.5636 46.6785 32.1973 46.0259 31.8344 45.3698C31.5731 44.8974 31.4739 44.1445 31.0616 43.9413C29.2316 43.0394 27.2458 42.759 25.3378 42.1679C25.0314 42.653 24.8157 43.1877 24.5966 43.7528C23.8757 45.6128 23.2265 47.5196 22.5456 49.4043C20.2627 56.0243 18.0509 62.7074 16.2354 69.5656L21.6736 70.9344L21.6736 70.9344Z" fill="black"/>
<path d="M58.7377 -0.51123C59.7604 2.74294 60.282 6.14619 60.2829 9.57132C60.283 27.4352 46.2158 41.9168 29.1176 41.9166C17.6207 41.9072 7.28211 35.2421 1.93787 24.6069C6.09158 37.9096 17.9615 46.9133 31.3543 46.9203C38.9951 46.9203 45.9893 44.0283 51.3889 39.2349C58.0723 33.3018 62.3128 24.4558 62.3127 14.575C62.3123 9.31744 61.0852 4.13921 58.7377 -0.51123Z" fill="#E0C400"/>
<path d="M14.1475 66.5232C16.0632 65.7457 18.0129 65.0778 19.9512 64.3723C23.346 63.1844 26.8363 62.3603 30.318 61.542C35.4417 60.3547 40.5771 59.2259 45.7078 58.0746C46.6505 57.8811 47.5908 57.6742 48.5357 57.4941C50.2959 57.1586 52.0215 56.8763 53.7981 56.6703C56.5065 56.3564 59.2243 56.2405 61.944 56.1241C64.6306 56.0276 67.3185 55.9979 70.0062 55.9841L65.563 54.8228C62.8739 54.8414 60.1847 54.8753 57.4971 54.9799C55.3822 55.0778 54.1421 55.1151 52.0239 55.2952C48.3993 55.6033 44.8039 56.2062 41.2445 57.0091C36.1131 58.1608 30.9766 59.2868 25.8536 60.4817C22.3666 61.3117 18.8707 62.1457 15.4767 63.3644C13.5367 64.065 11.5947 64.7575 9.67285 65.5158L14.1475 66.5232Z" fill="black"/>
</g>
</g>
<defs>
<clipPath id="clip0_23_18">
<rect width="75" height="75" fill="white"/>
</clipPath>
<clipPath id="clip1_23_18">
<rect width="75" height="75" fill="white"/>
</clipPath>
</defs>
</svg>
