<svg width="48" height="37" viewBox="0 0 48 37" fill="none" xmlns="http://www.w3.org/2000/svg">
<path d="M15.095 36.6865C33.2083 36.6865 43.1155 22.5957 43.1155 10.3762C43.1155 9.97598 43.1155 9.57756 43.0867 9.18094C45.0141 7.87193 46.6778 6.25114 48 4.39446C46.2028 5.14263 44.2961 5.63306 42.3437 5.84933C44.3996 4.69382 45.9383 2.87616 46.6733 0.734741C44.7402 1.81194 42.6253 2.57103 40.4198 2.97925C38.935 1.49676 36.9712 0.5151 34.8324 0.186167C32.6935 -0.142766 30.4988 0.199369 28.5879 1.15963C26.677 2.11989 25.1564 3.64474 24.2615 5.49821C23.3665 7.35169 23.1471 9.43045 23.6371 11.4128C19.7218 11.2284 15.8915 10.273 12.3949 8.60855C8.89831 6.94413 5.81353 4.60791 3.3408 1.75153C2.08146 3.7872 1.69574 6.19703 2.2622 8.49035C2.82865 10.7837 4.30468 12.7881 6.38976 14.0954C4.82246 14.0523 3.2893 13.6553 1.92 12.938V13.0552C1.92062 15.1901 2.7077 17.2591 4.14774 18.9113C5.58778 20.5634 7.59212 21.697 9.8208 22.1198C8.37096 22.4911 6.84975 22.5454 5.37408 22.2784C6.00363 24.1156 7.22886 25.7222 8.87848 26.8736C10.5281 28.025 12.5197 28.6635 14.5747 28.7C12.5329 30.207 10.1946 31.3212 7.69375 31.9789C5.19287 32.6366 2.57843 32.8248 0 32.5328C4.50367 35.2465 9.74385 36.6859 15.095 36.6793" fill="white"/>
</svg>
