<?xml version="1.0" encoding="UTF-8" standalone="no"?>
<svg
   version="1.1"
   width="1000"
   height="1000"
   id="svg20"
   sodipodi:docname="favicon_black_yellow.svg"
   inkscape:version="1.2.1 (9c6d41e, 2022-07-14)"
   xmlns:inkscape="http://www.inkscape.org/namespaces/inkscape"
   xmlns:sodipodi="http://sodipodi.sourceforge.net/DTD/sodipodi-0.dtd"
   xmlns="http://www.w3.org/2000/svg"
   xmlns:svg="http://www.w3.org/2000/svg"
   xmlns:svgjs="http://svgjs.com/svgjs">
  <defs
     id="defs22" />
  <rect
     width="1000"
     height="1000"
     rx="200"
     ry="200"
     fill="#ffffff"
     id="rect2" />
  <g
     transform="matrix(1,0,0,1,0,0)"
     id="g18">
    <svg
       version="1.1"
       width="100mm"
       height="100mm"
       id="svg16">
      <svg
         width="100mm"
         height="100mm"
         viewBox="0 0 100 100"
         version="1.1"
         id="svg5"
         inkscape:version="1.2.1 (9c6d41e, 2022-07-14)"
         sodipodi:docname="logo_mackielab2.svg">
        <sodipodi:namedview
           id="namedview7"
           pagecolor="#ffffff"
           bordercolor="#000000"
           borderopacity="0.25"
           inkscape:showpageshadow="2"
           inkscape:pageopacity="0.0"
           inkscape:pagecheckerboard="0"
           inkscape:deskcolor="#d1d1d1"
           inkscape:document-units="mm"
           showgrid="false"
           inkscape:zoom="0.76754483"
           inkscape:cx="523.74791"
           inkscape:cy="444.27372"
           inkscape:window-width="1512"
           inkscape:window-height="898"
           inkscape:window-x="0"
           inkscape:window-y="38"
           inkscape:window-maximized="0"
           inkscape:current-layer="g121" />
        <defs
           id="defs2">
          <rect
             x="83.270012"
             y="794.47784"
             width="212.95282"
             height="229.33382"
             id="rect2580" />
        </defs>
        <g
           inkscape:label="Layer 1"
           inkscape:groupmode="layer"
           id="layer1">
          <text
             xml:space="preserve"
             transform="matrix(0.26458333,0,0,0.26458333,55.621412,-28.171884)"
             id="text2578"
             style="font-style:normal;font-variant:normal;font-weight:normal;font-stretch:normal;font-size:192px;font-family:'Noto Sans Nabataean';-inkscape-font-specification:'Noto Sans Nabataean';white-space:pre;shape-inside:url(#rect2580);display:inline;fill:#2b0000"
             svgjs:data="{&quot;leading&quot;:&quot;1.3&quot;}"><tspan
               x="83.269531"
               y="969.17455"
               id="tspan215">
</tspan></text>
          <g
             id="g121"
             transform="matrix(0.46815573,0,0,0.5062615,0.12948552,-23.406476)">
            <ellipse
               id="path6497"
               style="fill:#373c38;stroke:#000000;stroke-width:0.345867"
               cx="13.745349"
               cy="201.46188"
               rx="0.047758617"
               ry="0.048198193" />
            <path
               style="opacity:1;fill:#000000;fill-opacity:1;stroke-width:0.471535"
               id="path6668"
               d="m 61.450913,233.05315 c 5.185117,-17.92167 11.429579,-35.40606 17.898217,-52.71955 1.945351,-4.93531 3.767021,-9.95052 5.82823,-14.81969 0.295113,-0.69716 0.60943,-1.38267 0.935034,-2.05952 0.182953,-0.38041 0.316481,-0.82606 0.589826,-1.11031 0.09201,-0.0957 0.210198,0.1128 0.315298,0.1691 -4.865891,-0.75387 -9.660913,-2.79889 -14.597652,-2.26155 -1.24102,0.13508 1.48248,2.40234 2.218115,3.60904 4.141062,6.79267 8.344561,13.52208 12.505403,20.29532 1.77225,2.89232 3.536312,5.79264 5.296896,8.69642 0.32396,0.53431 0.64759,1.06892 0.97119,1.60361 0.22607,0.37363 0.30844,1.01625 0.67785,1.12123 5.31116,1.50954 10.73999,2.43348 16.11002,3.65021 7.50218,-17.29307 14.37158,-34.97465 21.54157,-52.47049 2.59624,-5.8562 4.7728,-12.013 7.50438,-17.78529 0.39256,-0.82955 0.62058,-1.94835 1.30052,-2.39533 0.41969,-0.27589 1.69728,0.74682 1.23454,0.72884 -4.48005,-0.17412 -8.92323,-0.80072 -13.38483,-1.2011 0.74034,1.34513 1.54024,2.63944 2.22104,4.03537 1.86155,3.81693 4.64892,10.67702 6.10446,14.43283 3.6558,9.43308 6.92604,19.11102 10.23156,28.75912 4.0656,12.23575 8.08584,24.49787 12.30917,36.64147 1.69157,4.483 3.32602,9.00144 4.97918,13.50871 0.10631,0.28856 0.21261,0.57716 0.3189,0.86578 0,0 15.70183,2.26409 15.70183,2.26409 v 0 c -0.10644,-0.28739 -0.21291,-0.57479 -0.31936,-0.8622 -1.65547,-4.49424 -3.25634,-9.02186 -4.98428,-13.4702 -4.2315,-12.13496 -8.26581,-24.38503 -12.31085,-36.62907 -5.56918,-16.30259 -10.95627,-32.88463 -18.48039,-47.86083 -5.76025,-2.18782 -11.40004,-4.85806 -17.28079,-6.5635 -1.39003,-0.40313 -2.67778,2.88311 -3.03043,3.64077 -2.70447,5.81067 -4.93937,11.94063 -7.51398,17.83163 -4.21163,10.28392 -8.36209,20.60275 -12.53666,30.90861 -1.05065,2.5937 -5.14397,12.78308 -6.5588,15.88705 -0.61008,1.33846 -1.33899,2.59089 -2.00849,3.88632 4.86793,1.35132 9.67505,3.01664 14.60385,4.05394 0.37488,0.0789 -0.45156,-0.74892 -0.67764,-1.12309 -2.08139,-3.44498 -4.16991,-6.88298 -6.26665,-10.31285 -3.10406,-5.06211 -6.25613,-10.07433 -9.37586,-15.1204 -1.0552,-1.70676 -2.098426,-3.42552 -3.132027,-5.15354 -0.7441,-1.24399 -1.026797,-3.22704 -2.200904,-3.76214 -5.211828,-2.37541 -10.867729,-3.11381 -16.301576,-4.67073 -0.872794,1.27772 -1.487018,2.68584 -2.110973,4.17437 -2.053372,4.89853 -3.902151,9.92055 -5.841369,14.88408 -6.502051,17.43509 -12.801183,35.03617 -17.972063,53.09856 0,0 15.488488,3.60493 15.488488,3.60493 z" />
            <path
               id="path6670"
               style="opacity:1;fill:#e0c400;fill-opacity:1;stroke-width:0.697679"
               d="m 167.01138,44.887706 c 2.91295,8.570456 4.39843,17.533555 4.40092,26.554265 4.3e-4,47.047859 -40.06393,85.187759 -88.760434,85.187289 -32.743773,-0.0248 -62.188693,-17.57853 -77.4093924,-45.5882 11.8300134,35.03496 45.6362784,58.748 83.7797414,58.76636 21.761235,-1.2e-4 41.681075,-7.6167 57.059535,-20.24105 19.0346,-15.62571 31.11178,-38.92338 31.11154,-64.946246 -10e-4,-13.846805 -3.49604,-27.484633 -10.18191,-39.732418 z"
               sodipodi:nodetypes="cccccscc" />
            <path
               style="opacity:1;fill:#000000;fill-opacity:1;stroke-width:0.345867"
               id="path6729"
               d="m 40.016039,221.4354 c 5.455924,-2.04781 11.008983,-3.80679 16.529282,-5.66476 9.668507,-3.12854 19.608958,-5.29904 29.525038,-7.45415 14.592761,-3.1269 29.218471,-6.09985 43.831191,-9.13212 2.68466,-0.5096 5.36295,-1.0545 8.05395,-1.52877 5.01303,-0.88352 9.92783,-1.62724 14.98772,-2.16954 7.71348,-0.82671 15.45404,-1.13208 23.19995,-1.43859 7.65138,-0.25413 15.30663,-0.33242 22.9615,-0.3688 0,0 -12.65456,-3.0586 -12.65456,-3.0586 v 0 c -7.6586,0.049 -15.31761,0.13841 -22.97211,0.41387 -6.02328,0.25786 -9.55522,0.35606 -15.58789,0.8303 -10.323,0.81152 -20.56287,2.3993 -30.70045,4.51407 -14.61442,3.0332 -29.243547,5.99876 -43.834145,9.14575 -9.931005,2.18597 -19.887563,4.38241 -29.553991,7.592 -5.52502,1.84514 -11.055902,3.66889 -16.529547,5.66606 0,0 12.744062,2.65328 12.744062,2.65328 z" />
          </g>
        </g>
      </svg>
    </svg>
  </g>
</svg>
